solid OpenSCAD_Model
  facet normal -1 0 0
    outer loop
      vertex -112.5 -158 0
      vertex -112.5 158 77
      vertex -112.5 158 0
    endloop
  endfacet
  facet normal -1 -0 0
    outer loop
      vertex -112.5 158 77
      vertex -112.5 -158 0
      vertex -112.5 -158 77
    endloop
  endfacet
  facet normal 0 0 1
    outer loop
      vertex 112.5 158 77
      vertex 109.5 155 77
      vertex 112.5 -158 77
    endloop
  endfacet
  facet normal 0 0 1
    outer loop
      vertex 112.5 158 77
      vertex -109.5 155 77
      vertex 109.5 155 77
    endloop
  endfacet
  facet normal 0 0 1
    outer loop
      vertex -109.5 155 77
      vertex -112.5 158 77
      vertex -109.5 -155 77
    endloop
  endfacet
  facet normal -0 0 1
    outer loop
      vertex -112.5 158 77
      vertex -109.5 155 77
      vertex 112.5 158 77
    endloop
  endfacet
  facet normal -0 0 1
    outer loop
      vertex 109.5 -155 77
      vertex 112.5 -158 77
      vertex 109.5 155 77
    endloop
  endfacet
  facet normal -0 0 1
    outer loop
      vertex -109.5 -155 77
      vertex 112.5 -158 77
      vertex 109.5 -155 77
    endloop
  endfacet
  facet normal 0 0 1
    outer loop
      vertex -109.5 -155 77
      vertex -112.5 -158 77
      vertex 112.5 -158 77
    endloop
  endfacet
  facet normal 0 0 1
    outer loop
      vertex -112.5 -158 77
      vertex -109.5 -155 77
      vertex -112.5 158 77
    endloop
  endfacet
  facet normal 1 -0 0
    outer loop
      vertex 112.5 -158 77
      vertex 112.5 158 0
      vertex 112.5 158 77
    endloop
  endfacet
  facet normal 1 0 0
    outer loop
      vertex 112.5 158 0
      vertex 112.5 -158 77
      vertex 112.5 -158 0
    endloop
  endfacet
  facet normal 0 1 -0
    outer loop
      vertex 112.5 158 0
      vertex -112.5 158 77
      vertex 112.5 158 77
    endloop
  endfacet
  facet normal 0 1 0
    outer loop
      vertex -112.5 158 77
      vertex 112.5 158 0
      vertex -112.5 158 0
    endloop
  endfacet
  facet normal 0 0 -1
    outer loop
      vertex -112.5 -158 0
      vertex 112.5 158 0
      vertex 112.5 -158 0
    endloop
  endfacet
  facet normal -0 0 -1
    outer loop
      vertex 112.5 158 0
      vertex -112.5 -158 0
      vertex -112.5 158 0
    endloop
  endfacet
  facet normal 0 -1 0
    outer loop
      vertex -112.5 -158 0
      vertex 112.5 -158 77
      vertex -112.5 -158 77
    endloop
  endfacet
  facet normal 0 -1 -0
    outer loop
      vertex 112.5 -158 77
      vertex -112.5 -158 0
      vertex 112.5 -158 0
    endloop
  endfacet
  facet normal 1 -0 0
    outer loop
      vertex -109.5 -155 77
      vertex -109.5 155 3
      vertex -109.5 155 77
    endloop
  endfacet
  facet normal 1 0 0
    outer loop
      vertex -109.5 155 3
      vertex -109.5 -155 77
      vertex -109.5 -155 3
    endloop
  endfacet
  facet normal -1 0 0
    outer loop
      vertex 109.5 -155 3
      vertex 109.5 155 77
      vertex 109.5 155 3
    endloop
  endfacet
  facet normal -1 -0 0
    outer loop
      vertex 109.5 155 77
      vertex 109.5 -155 3
      vertex 109.5 -155 77
    endloop
  endfacet
  facet normal -0 0 1
    outer loop
      vertex -109.5 155 3
      vertex 109.5 -155 3
      vertex 109.5 155 3
    endloop
  endfacet
  facet normal 0 0 1
    outer loop
      vertex 109.5 -155 3
      vertex -109.5 155 3
      vertex -109.5 -155 3
    endloop
  endfacet
  facet normal 0 1 -0
    outer loop
      vertex 109.5 -155 3
      vertex -109.5 -155 77
      vertex 109.5 -155 77
    endloop
  endfacet
  facet normal 0 1 0
    outer loop
      vertex -109.5 -155 77
      vertex 109.5 -155 3
      vertex -109.5 -155 3
    endloop
  endfacet
  facet normal 0 -1 0
    outer loop
      vertex -109.5 155 3
      vertex 109.5 155 77
      vertex -109.5 155 77
    endloop
  endfacet
  facet normal 0 -1 -0
    outer loop
      vertex 109.5 155 77
      vertex -109.5 155 3
      vertex 109.5 155 3
    endloop
  endfacet
endsolid OpenSCAD_Model
